<svg width="45" height="45" viewBox="0 0 45 45" fill="none" xmlns="http://www.w3.org/2000/svg">
<path d="M12.5 19.6667V29C12.5 29.6188 12.7458 30.2123 13.1834 30.6499C13.621 31.0875 14.2145 31.3333 14.8333 31.3333H31.1667C31.7855 31.3333 32.379 31.0875 32.8166 30.6499C33.2542 30.2123 33.5 29.6188 33.5 29V19.6667M12.5 19.6667V17.3333C12.5 16.7145 12.7458 16.121 13.1834 15.6834C13.621 15.2458 14.2145 15 14.8333 15H31.1667C31.7855 15 32.379 15.2458 32.8166 15.6834C33.2542 16.121 33.5 16.7145 33.5 17.3333V19.6667M12.5 19.6667H33.5M17.1667 24.3333H23" stroke="#555555" stroke-width="2" stroke-linecap="round" stroke-linejoin="round"/>
</svg>
