<svg width="45" height="45" viewBox="0 0 45 45" fill="none" xmlns="http://www.w3.org/2000/svg">
<path d="M19.057 24.312H15.182C14.6686 24.3149 14.1772 24.5209 13.8152 24.885C13.4532 25.249 13.25 25.7416 13.25 26.255V30.13C13.2497 30.3838 13.2995 30.6351 13.3965 30.8697C13.4935 31.1042 13.6358 31.3173 13.8153 31.4967C13.9947 31.6762 14.2078 31.8185 14.4423 31.9155C14.6769 32.0125 14.9282 32.0623 15.182 32.062H19.057C19.5705 32.0625 20.0632 31.8595 20.4273 31.4973C20.7913 31.1352 20.9969 30.6435 20.999 30.13V26.255C20.9993 25.9999 20.9492 25.7473 20.8517 25.5115C20.7542 25.2758 20.6112 25.0616 20.4308 24.8812C20.2504 24.7008 20.0362 24.5578 19.8005 24.4603C19.5648 24.3628 19.3121 24.3127 19.057 24.313M19.057 13.562H15.182C14.9282 13.5617 14.6769 13.6115 14.4423 13.7085C14.2078 13.8055 13.9947 13.9478 13.8153 14.1273C13.6358 14.3068 13.4935 14.5198 13.3965 14.7544C13.2995 14.9889 13.2497 15.2402 13.25 15.494V19.369C13.2495 19.8825 13.4525 20.3752 13.8147 20.7393C14.1768 21.1033 14.6685 21.3089 15.182 21.311H19.057C19.3121 21.3113 19.5648 21.2612 19.8005 21.1637C20.0362 21.0662 20.2504 20.9232 20.4308 20.7428C20.6112 20.5624 20.7542 20.3482 20.8517 20.1125C20.9492 19.8768 20.9993 19.6241 20.999 19.369V15.494C20.9969 14.9805 20.7913 14.4888 20.4273 14.1267C20.0632 13.7645 19.5705 13.5615 19.057 13.562ZM29.818 13.562H25.943C25.4295 13.5615 24.9368 13.7645 24.5727 14.1267C24.2087 14.4888 24.0031 14.9805 24.001 15.494V19.369C24.0013 19.884 24.206 20.3778 24.5701 20.7419C24.9342 21.1061 25.428 21.3107 25.943 21.311H29.818C30.3315 21.3089 30.8232 21.1033 31.1853 20.7393C31.5475 20.3752 31.7505 19.8825 31.75 19.369V15.494C31.7503 15.2402 31.7005 14.9889 31.6035 14.7544C31.5065 14.5198 31.3642 14.3068 31.1847 14.1273C31.0053 13.9478 30.7922 13.8055 30.5577 13.7085C30.3231 13.6115 30.0718 13.5617 29.818 13.562ZM27.875 24.312C26.8473 24.312 25.8617 24.7203 25.135 25.447C24.4083 26.1737 24 27.1593 24 28.187C24 29.2147 24.4083 30.2003 25.135 30.9271C25.8617 31.6538 26.8473 32.062 27.875 32.062C28.9027 32.062 29.8883 31.6538 30.615 30.9271C31.3417 30.2003 31.75 29.2147 31.75 28.187C31.75 27.1593 31.3417 26.1737 30.615 25.447C29.8883 24.7203 28.9027 24.312 27.875 24.312Z" stroke="#555555" stroke-width="1.7" stroke-linecap="round" stroke-linejoin="round"/>
</svg>
