<svg width="45" height="45" viewBox="0 0 45 45" fill="none" xmlns="http://www.w3.org/2000/svg">
<path d="M16.2775 35.3745H28.7225C31.1485 35.3745 32.3555 34.144 32.3555 31.7065V21.066C32.3555 19.554 32.1915 18.898 31.254 17.937L24.785 11.363C23.895 10.4485 23.168 10.2495 21.844 10.2495H16.2775C13.8635 10.2495 12.6445 11.4915 12.6445 13.9295V31.7065C12.6445 34.1555 13.8635 35.3745 16.2775 35.3745ZM16.371 33.488C15.164 33.488 14.531 32.843 14.531 31.6715V13.9645C14.531 12.8045 15.164 12.136 16.383 12.136H21.586V18.945C21.586 20.4215 22.336 21.148 23.789 21.148H30.469V31.6715C30.469 32.843 29.8475 33.488 28.629 33.488H16.371ZM24 19.378C23.543 19.378 23.355 19.191 23.355 18.722V12.4995L30.105 19.3785L24 19.378ZM26.8125 24.3705H17.9175C17.496 24.3705 17.1915 24.687 17.1915 25.0855C17.1915 25.4955 17.4965 25.812 17.918 25.812H26.8125C26.9084 25.8136 27.0035 25.7958 27.0924 25.7599C27.1812 25.7239 27.2619 25.6705 27.3297 25.6027C27.3975 25.5349 27.4509 25.4542 27.4869 25.3654C27.5229 25.2765 27.5406 25.1813 27.539 25.0855C27.539 24.687 27.2225 24.3705 26.8125 24.3705ZM26.8125 28.4605H17.9175C17.496 28.4605 17.1915 28.7885 17.1915 29.1985C17.1915 29.597 17.4965 29.902 17.918 29.902H26.8125C27.2225 29.902 27.539 29.597 27.539 29.1985C27.539 28.7885 27.2225 28.4605 26.8125 28.4605Z" fill="white"/>
</svg>
