<svg width="45" height="45" viewBox="0 0 45 45" fill="none" xmlns="http://www.w3.org/2000/svg">
<path fill-rule="evenodd" clip-rule="evenodd" d="M26.7393 16.0476C26.1443 16.1746 25.2833 16.5256 24.1893 17.1326C22.1553 18.2596 19.4263 20.4266 16.2403 23.9306C16.1519 24.0278 16.0452 24.1066 15.9264 24.1626C15.8075 24.2185 15.6788 24.2505 15.5476 24.2568C15.4164 24.263 15.2853 24.2433 15.1617 24.1988C15.0381 24.1544 14.9244 24.086 14.8273 23.9976C14.7301 23.9092 14.6513 23.8026 14.5953 23.6838C14.5393 23.5649 14.5073 23.4362 14.5011 23.305C14.4949 23.1738 14.5146 23.0426 14.559 22.919C14.6035 22.7954 14.6719 22.6818 14.7603 22.5846C18.0363 18.9816 20.9323 16.6506 23.2183 15.3826C24.3783 14.7396 25.4433 14.2786 26.3253 14.0926C27.1033 13.9266 28.2673 13.8816 28.8663 14.8606C29.1373 15.3036 29.1793 15.8086 29.1313 16.2646C29.0833 16.7256 28.9343 17.2296 28.7143 17.7636C28.2743 18.8326 27.4823 20.1836 26.3173 21.8336C24.9553 23.7636 24.2143 25.0746 23.8803 25.9236C23.815 26.0865 23.7606 26.2536 23.7173 26.4236C23.8219 26.4023 23.9479 26.3673 24.0953 26.3186C24.6503 26.1336 25.3303 25.7936 25.9853 25.4006C26.6253 25.0166 27.2053 24.7386 27.7073 24.6606C27.9703 24.6206 28.3163 24.6176 28.6533 24.7866C29.0223 24.9716 29.2293 25.2836 29.3263 25.5796C29.4693 26.0186 29.4043 26.4926 29.3023 26.9316C29.1373 27.6446 28.8593 28.3266 28.6813 29.0356C28.7899 28.9896 28.9139 28.9323 29.0533 28.8636C29.2892 28.7547 29.5582 28.7418 29.8035 28.8278C30.0487 28.9137 30.2508 29.0918 30.3671 29.3242C30.4833 29.5567 30.5044 29.8252 30.4261 30.073C30.3477 30.3207 30.176 30.5283 29.9473 30.6516C29.2973 30.9766 28.6823 31.2036 28.1373 31.2016C27.803 31.2069 27.4758 31.1053 27.2033 30.9116C26.9387 30.7138 26.7485 30.4327 26.6633 30.1136C26.5273 29.6326 26.6143 29.1066 26.6963 28.7416C26.8263 28.1496 27.0333 27.5796 27.2103 27.0016C26.4063 27.4586 25.6103 27.9216 24.7273 28.2166C24.3534 28.3487 23.963 28.4285 23.5673 28.4536C23.1933 28.4686 22.6943 28.4136 22.2773 28.0736C21.8253 27.7076 21.6743 27.1816 21.6753 26.6976C21.6753 26.2346 21.8093 25.7266 22.0193 25.1916C22.4423 24.1156 23.2953 22.6476 24.6833 20.6816C25.8133 19.0816 26.5073 17.8706 26.8643 17.0016C26.9943 16.6856 27.1283 16.3416 27.1473 15.9956C27.0643 15.9956 26.9343 16.0056 26.7393 16.0476Z" fill="#555555"/>
</svg>
