<svg width="45" height="45" viewBox="0 0 45 45" fill="none" xmlns="http://www.w3.org/2000/svg">
<path d="M12.6562 32C12.0375 32 11.508 31.7799 11.0677 31.3396C10.6275 30.8994 10.407 30.3695 10.4062 29.75V16.25C10.4062 15.6312 10.6268 15.1017 11.0677 14.6615C11.5087 14.2212 12.0382 14.0007 12.6562 14H19.4062L21.6562 16.25H30.6562C31.275 16.25 31.8049 16.4705 32.2459 16.9115C32.6869 17.3525 32.907 17.882 32.9062 18.5H20.7281L18.4781 16.25H12.6562V29.75L15.3562 20.75H34.5937L31.6969 30.3969C31.5469 30.8844 31.2705 31.2736 30.8677 31.5646C30.465 31.8556 30.0195 32.0007 29.5312 32H12.6562ZM15.0187 29.75H29.5312L31.5562 23H17.0437L15.0187 29.75Z" fill="#555555"/>
</svg>
