<svg width="45" height="45" viewBox="0 0 45 45" fill="none" xmlns="http://www.w3.org/2000/svg">
<path d="M24.5 18.812V16.812C24.5 16.2816 24.2893 15.7729 23.9142 15.3978C23.5391 15.0227 23.0304 14.812 22.5 14.812H15.5C14.9696 14.812 14.4609 15.0227 14.0858 15.3978C13.7107 15.7729 13.5 16.2816 13.5 16.812V28.812C13.5 29.3424 13.7107 29.8512 14.0858 30.2262C14.4609 30.6013 14.9696 30.812 15.5 30.812H22.5C23.0304 30.812 23.5391 30.6013 23.9142 30.2262C24.2893 29.8512 24.5 29.3424 24.5 28.812V26.812" stroke="#555555" stroke-width="2" stroke-linecap="round" stroke-linejoin="round"/>
<path d="M19.5 22.812H31.5M31.5 22.812L28.5 19.812M31.5 22.812L28.5 25.812" stroke="#555555" stroke-width="2" stroke-linecap="round" stroke-linejoin="round"/>
</svg>
