<svg width="45" height="45" viewBox="0 0 45 45" fill="none" xmlns="http://www.w3.org/2000/svg">
<path d="M26.8081 15.1961C26.2181 15.1961 25.9221 15.1961 25.6531 15.0961L25.5421 15.0501C25.2811 14.9301 25.0721 14.7221 24.6541 14.3041C23.6921 13.3421 23.2111 12.8611 22.6201 12.8161C22.5402 12.8113 22.46 12.8113 22.3801 12.8161C21.7891 12.8611 21.3081 13.3421 20.3461 14.3041C19.9281 14.7221 19.7191 14.9311 19.4581 15.0501L19.3481 15.0961C19.0781 15.1961 18.7831 15.1961 18.1921 15.1961H18.0821C16.5751 15.1961 15.8211 15.1961 15.3521 15.6641C14.8831 16.1321 14.8841 16.8871 14.8841 18.3941V18.5041C14.8841 19.0941 14.8841 19.3901 14.7841 19.6591C14.7694 19.6971 14.7541 19.7341 14.7381 19.7701C14.6181 20.0311 14.4101 20.2401 13.9921 20.6581C13.0301 21.6201 12.5491 22.1011 12.5041 22.6921C12.4993 22.772 12.4993 22.8522 12.5041 22.9321C12.5491 23.5231 13.0301 24.0041 13.9921 24.9661C14.4101 25.3841 14.6191 25.5931 14.7381 25.8541C14.7548 25.8901 14.7701 25.9268 14.7841 25.9641C14.8841 26.2341 14.8841 26.5291 14.8841 27.1201V27.2301C14.8841 28.7371 14.8841 29.4911 15.3521 29.9601C15.8201 30.4291 16.5751 30.4281 18.0821 30.4281H18.1921C18.7821 30.4281 19.0781 30.4281 19.3471 30.5281C19.3851 30.5421 19.4221 30.5574 19.4581 30.5741C19.7191 30.6941 19.9281 30.9021 20.3461 31.3201C21.3081 32.2821 21.7891 32.7631 22.3801 32.8081C22.4601 32.8141 22.5401 32.8141 22.6201 32.8081C23.2111 32.7631 23.6921 32.2821 24.6541 31.3201C25.0721 30.9021 25.2811 30.6941 25.5421 30.5741C25.5781 30.5574 25.6148 30.5421 25.6521 30.5281C25.9221 30.4281 26.2171 30.4281 26.8081 30.4281H26.9181C28.4251 30.4281 29.1791 30.4281 29.6481 29.9601C30.1171 29.4921 30.1161 28.7371 30.1161 27.2301V27.1201C30.1161 26.5301 30.1161 26.2341 30.2161 25.9651C30.2301 25.9271 30.2454 25.8901 30.2621 25.8541C30.3821 25.5931 30.5901 25.3841 31.0081 24.9661C31.9701 24.0041 32.4511 23.5231 32.4961 22.9321C32.5021 22.8521 32.5021 22.7721 32.4961 22.6921C32.4511 22.1011 31.9701 21.6201 31.0081 20.6581C30.5901 20.2401 30.3821 20.0311 30.2621 19.7701L30.2161 19.6601C30.1161 19.3901 30.1161 19.0951 30.1161 18.5041V18.3941C30.1161 16.8871 30.1161 16.1331 29.6481 15.6641C29.1801 15.1951 28.4251 15.1961 26.9181 15.1961H26.8081Z" stroke="#555555" stroke-width="2" stroke-linecap="round" stroke-linejoin="round"/>
<path d="M26 22.812C26 23.2716 25.9095 23.7268 25.7336 24.1514C25.5577 24.576 25.2999 24.9619 24.9749 25.2869C24.6499 25.6119 24.264 25.8697 23.8394 26.0456C23.4148 26.2215 22.9596 26.312 22.5 26.312C22.0404 26.312 21.5852 26.2215 21.1606 26.0456C20.736 25.8697 20.3501 25.6119 20.0251 25.2869C19.7001 24.9619 19.4423 24.576 19.2664 24.1514C19.0905 23.7268 19 23.2716 19 22.812C19 21.8838 19.3687 20.9935 20.0251 20.3371C20.6815 19.6808 21.5717 19.312 22.5 19.312C23.4283 19.312 24.3185 19.6808 24.9749 20.3371C25.6313 20.9935 26 21.8838 26 22.812Z" stroke="#555555" stroke-width="2" stroke-linecap="round" stroke-linejoin="round"/>
</svg>
