<svg width="14" height="14" viewBox="0 0 14 14" fill="none" xmlns="http://www.w3.org/2000/svg">
<path d="M5.89302 12.9096C7.017 12.4817 6.77074 11.302 6.20243 10.5563C5.64044 9.79221 4.86376 9.26654 4.08076 8.75921C3.52197 8.4185 3.02313 7.9934 2.60316 7.50005C2.42636 7.29834 2.06643 6.92548 2.43267 6.85213C2.80523 6.77878 3.44931 7.1333 3.77766 7.26778C4.35228 7.50005 4.92059 7.769 5.45101 8.08684L6.08877 7.04773C5.10371 6.41815 3.84081 5.86192 2.66631 5.69688C1.99697 5.59908 1.28975 5.73355 1.06242 6.43648C0.860359 7.04162 1.1824 7.65286 1.54864 8.12963C2.41373 9.24821 3.75872 9.7861 4.76272 10.7519C4.97742 10.9536 5.23631 11.192 5.3626 11.4731C5.49521 11.7421 5.46363 11.7604 5.16685 11.7604C4.38385 11.7604 3.40511 11.1675 2.76734 10.7763L2.12957 11.8154C3.09569 12.39 4.71221 13.2885 5.89302 12.9096ZM12.8958 3.37415C13.0347 3.23968 13.0347 3.01963 12.8958 2.89127L12.0749 2.09666C12.0089 2.03467 11.9206 2 11.8287 2C11.7367 2 11.6484 2.03467 11.5824 2.09666L10.9383 2.72012L12.2517 3.99151M6.68233 6.83991V8.11129H7.99575L11.8792 4.35214L10.5658 3.08076L6.68233 6.83991Z" fill="black"/>
</svg>
