<svg width="45" height="45" viewBox="0 0 45 45" fill="none" xmlns="http://www.w3.org/2000/svg">
<path d="M29.5 15C30.0046 14.9998 30.4906 15.1904 30.8605 15.5335C31.2305 15.8766 31.4572 16.3468 31.495 16.85L31.5 17V21C31.5002 21.5046 31.3096 21.9906 30.9665 22.3605C30.6234 22.7305 30.1532 22.9572 29.65 22.995L29.5 23H15.5C14.9954 23.0002 14.5094 22.8096 14.1395 22.4665C13.7695 22.1234 13.5428 21.6532 13.505 21.15L13.5 21V17C13.4998 16.4954 13.6904 16.0094 14.0335 15.6395C14.3766 15.2695 14.8468 15.0428 15.35 15.005L15.5 15H29.5ZM29.5 17H15.5V21H29.5V17ZM20.5 18C20.7549 18.0003 21 18.0979 21.1854 18.2728C21.3707 18.4478 21.4822 18.687 21.4972 18.9414C21.5121 19.1958 21.4293 19.4464 21.2657 19.6418C21.1021 19.8373 20.8701 19.9629 20.617 19.993L20.5 20H18.5C18.2451 19.9997 18 19.9021 17.8146 19.7272C17.6293 19.5522 17.5178 19.313 17.5028 19.0586C17.4879 18.8042 17.5707 18.5536 17.7343 18.3582C17.8979 18.1627 18.1299 18.0371 18.383 18.007L18.5 18H20.5ZM29.5 24C30.0046 23.9998 30.4906 24.1904 30.8605 24.5335C31.2305 24.8766 31.4572 25.3468 31.495 25.85L31.5 26V30C31.5002 30.5046 31.3096 30.9906 30.9665 31.3605C30.6234 31.7305 30.1532 31.9572 29.65 31.995L29.5 32H15.5C14.9954 32.0002 14.5094 31.8096 14.1395 31.4665C13.7695 31.1234 13.5428 30.6532 13.505 30.15L13.5 30V26C13.4998 25.4954 13.6904 25.0094 14.0335 24.6395C14.3766 24.2695 14.8468 24.0428 15.35 24.005L15.5 24H29.5ZM29.5 26H15.5V30H29.5V26ZM20.5 27C20.7652 27 21.0196 27.1054 21.2071 27.2929C21.3946 27.4804 21.5 27.7348 21.5 28C21.5 28.2652 21.3946 28.5196 21.2071 28.7071C21.0196 28.8946 20.7652 29 20.5 29H18.5C18.2348 29 17.9804 28.8946 17.7929 28.7071C17.6054 28.5196 17.5 28.2652 17.5 28C17.5 27.7348 17.6054 27.4804 17.7929 27.2929C17.9804 27.1054 18.2348 27 18.5 27H20.5Z" fill="#555555"/>
</svg>
