<svg width="45" height="45" viewBox="0 0 45 45" fill="none" xmlns="http://www.w3.org/2000/svg">
<path d="M22.5 33C16.977 33 12.5 28.523 12.5 23C12.5 17.477 16.977 13 22.5 13C28.023 13 32.5 17.477 32.5 23C32.5 28.523 28.023 33 22.5 33ZM22.5 31C24.6217 31 26.6566 30.1571 28.1569 28.6569C29.6571 27.1566 30.5 25.1217 30.5 23C30.5 20.8783 29.6571 18.8434 28.1569 17.3431C26.6566 15.8429 24.6217 15 22.5 15C20.3783 15 18.3434 15.8429 16.8431 17.3431C15.3429 18.8434 14.5 20.8783 14.5 23C14.5 25.1217 15.3429 27.1566 16.8431 28.6569C18.3434 30.1571 20.3783 31 22.5 31ZM17.5 22H27.5V24H17.5V22Z" fill="#555555"/>
</svg>
