<svg width="14" height="14" viewBox="0 0 14 14" fill="none" xmlns="http://www.w3.org/2000/svg">
<path d="M7.00065 5.25C7.46478 5.25 7.9099 5.43437 8.23809 5.76256C8.56628 6.09075 8.75065 6.53587 8.75065 7C8.75065 7.46413 8.56628 7.90925 8.23809 8.23744C7.9099 8.56563 7.46478 8.75 7.00065 8.75C6.53652 8.75 6.0914 8.56563 5.76321 8.23744C5.43503 7.90925 5.25065 7.46413 5.25065 7C5.25065 6.53587 5.43503 6.09075 5.76321 5.76256C6.0914 5.43437 6.53652 5.25 7.00065 5.25ZM7.00065 2.625C9.91732 2.625 12.4082 4.43917 13.4173 7C12.4082 9.56083 9.91732 11.375 7.00065 11.375C4.08398 11.375 1.59315 9.56083 0.583984 7C1.59315 4.43917 4.08398 2.625 7.00065 2.625ZM1.85565 7C2.32713 7.96268 3.05925 8.77377 3.96876 9.34106C4.87828 9.90836 5.92872 10.2091 7.00065 10.2091C8.07259 10.2091 9.12302 9.90836 10.0325 9.34106C10.9421 8.77377 11.6742 7.96268 12.1457 7C11.6742 6.03732 10.9421 5.22623 10.0325 4.65893C9.12302 4.09164 8.07259 3.7909 7.00065 3.7909C5.92872 3.7909 4.87828 4.09164 3.96876 4.65893C3.05925 5.22623 2.32713 6.03732 1.85565 7Z" fill="#09090B"/>
</svg>
